<svg xmlns="http://www.w3.org/2000/svg" viewBox="0 0 800 600" width="800" height="600">
  <defs>
    <linearGradient id="bgTT" x1="0" y1="0" x2="1" y2="1">
      <stop offset="0%" stop-color="#0f172a"/>
      <stop offset="100%" stop-color="#1e293b"/>
    </linearGradient>
    <linearGradient id="scrapShred" x1="0" y1="0" x2="1" y2="1">
      <stop offset="0%" stop-color="#e2e8f0"/>
      <stop offset="50%" stop-color="#94a3b8"/>
      <stop offset="100%" stop-color="#475569"/>
    </linearGradient>
  </defs>
  <rect width="800" height="600" fill="url(#bgTT)"/>
  <!-- Shredded & Compacted Secondary Metal Pieces -->
  <g transform="translate(400, 320)">
    <!-- Shadow -->
    <ellipse cx="0" cy="120" rx="250" ry="40" fill="#000000" opacity="0.6"/>
    <!-- Chunks and cut pieces -->
    <polygon points="-160,20 -80,-50 20,-20 -40,60" fill="url(#scrapShred)" stroke="#ffffff" stroke-width="2"/>
    <polygon points="10,-60 120,-80 160,-10 60,30" fill="url(#scrapShred)" stroke="#cbd5e1" stroke-width="2"/>
    <polygon points="-60,40 40,30 90,90 -20,100" fill="url(#scrapShred)" stroke="#e2e8f0" stroke-width="2"/>
    <polygon points="-180,60 -100,50 -120,110 -190,100" fill="url(#scrapShred)" stroke="#94a3b8" stroke-width="1.5"/>
    <polygon points="110,10 180,-20 220,50 150,80" fill="url(#scrapShred)" stroke="#ffffff" stroke-width="2"/>
  </g>
  <!-- Technical Spec Watermark Header -->
  <g transform="translate(40, 50)">
    <rect x="0" y="0" width="190" height="28" rx="6" fill="#f59e0b" opacity="0.3"/>
    <text x="12" y="19" fill="#fbbf24" font-family="sans-serif" font-size="12" font-weight="bold">ALUMINIUM TT SCRAP</text>
  </g>
  <g transform="translate(760, 50)">
    <text x="0" y="20" fill="#94a3b8" font-family="monospace" font-size="12" text-anchor="end">ISRI TENSE &amp; TABOR</text>
  </g>
</svg>